<svg xmlns="http://www.w3.org/2000/svg" viewBox="0 0 64 64">
  <defs>
    <linearGradient id="s" x1="0" y1="0" x2="1" y2="1"><stop offset="0" stop-color="#eef1f5"/><stop offset=".5" stop-color="#a3a9b2"/><stop offset="1" stop-color="#5d636d"/></linearGradient>
  </defs>
  <path d="M32 2 57 9.5V30c0 15.5-10.5 25.5-25 32C17.5 55.5 7 45.5 7 30V9.5Z" fill="url(#s)"/>
  <path d="M32 8 51.5 13.8V30c0 12.2-8.2 20.4-19.5 25.8C20.7 50.4 12.5 42.2 12.5 30V13.8Z" fill="#14181f"/>
  <g fill="none" stroke="#b9c0c9" stroke-width="2.6" stroke-linecap="round" stroke-linejoin="round">
    <path d="M32 16v32"/><path d="M32 23l-9 8v8"/><path d="M32 23l9 8v8"/>
  </g>
  <circle cx="23" cy="40" r="4" fill="#9beb2a"/>
  <circle cx="32" cy="17" r="4.4" fill="#2e76f8"/>
  <circle cx="41" cy="40" r="4" fill="#7b3cf4"/>
</svg>
